<svg width="24" height="24" viewBox="0 0 24 24" fill="none" xmlns="http://www.w3.org/2000/svg">
<path d="M13 14C15.206 14 17 12.206 17 10C17 7.794 15.206 6 13 6C10.794 6 9 7.794 9 10C9 12.206 10.794 14 13 14ZM13 8C14.103 8 15 8.897 15 10C15 11.103 14.103 12 13 12C11.897 12 11 11.103 11 10C11 8.897 11.897 8 13 8Z" fill="#434547"/>
<path d="M12.1519 22.3049C12.3264 22.4318 12.5355 22.5 12.75 22.5C12.9645 22.5 13.1736 22.4318 13.3481 22.3049C13.6616 22.0791 21.0298 16.6621 20.9999 9.90007C20.9999 5.26848 17.2988 1.5 12.75 1.5C8.20121 1.5 4.50009 5.26848 4.50009 9.89482C4.47018 16.6621 11.8384 22.0791 12.1519 22.3049ZM12.75 3.60002C16.1624 3.60002 18.9374 6.42559 18.9374 9.90532C18.9591 14.5653 14.4124 18.7495 12.75 20.1219C11.0887 18.7485 6.54091 14.5632 6.56257 9.90007C6.56257 6.42559 9.33763 3.60002 12.75 3.60002Z" fill="#434547"/>
</svg>
