<svg width="128" height="128" viewBox="0 0 128 128" fill="none" xmlns="http://www.w3.org/2000/svg">
<path fill-rule="evenodd" clip-rule="evenodd" d="M64 0C28.6539 0 0 28.6539 0 64C0 99.3461 28.6539 128 64 128C99.3461 128 128 99.3461 128 64C128 28.6539 99.3461 0 64 0ZM63.9037 69.3848L39.9965 52.0307V88.6133H36.0024C33.7771 88.6133 32.0083 86.8445 32.0083 84.6192V44.1653C32.0083 43.996 32.0187 43.8371 32.0384 43.6883C32.1109 43.0536 32.3424 42.4325 32.7501 41.8829C34.0624 40.1141 36.6301 39.7147 38.456 41.0269L63.9608 59.5709L89.6368 40.7989C91.4056 39.4864 93.9163 39.8859 95.2285 41.7117C95.9261 42.652 96.14 43.8016 95.9131 44.8696V84.6763C95.9131 86.8445 94.1443 88.6133 91.9192 88.6133H87.9251V51.9435L63.9037 69.3848Z" fill="#434547"/>
</svg>
