<svg width="23" height="23" viewBox="0 0 23 23" fill="none" xmlns="http://www.w3.org/2000/svg">
<path d="M18.6875 20.8438H18.5653C4.44189 20.0316 2.43657 8.11469 2.15626 4.47781C2.13367 4.19504 2.1671 3.91059 2.25464 3.64076C2.34217 3.37094 2.48209 3.12103 2.66637 2.90537C2.85065 2.68971 3.07567 2.51253 3.32855 2.38398C3.58142 2.25543 3.85718 2.17804 4.14001 2.15625H8.10032C8.38822 2.15597 8.66958 2.24215 8.90793 2.40362C9.14629 2.56509 9.33068 2.79441 9.4372 3.06188L10.5297 5.75C10.6349 6.0113 10.661 6.29774 10.6048 6.57375C10.5485 6.84976 10.4125 7.10317 10.2134 7.3025L8.68251 8.84781C8.92165 10.2068 9.57245 11.4595 10.5469 12.4365C11.5213 13.4135 12.7723 14.0676 14.1306 14.3103L15.6903 12.765C15.8926 12.5682 16.1484 12.4353 16.4258 12.3829C16.7032 12.3305 16.9898 12.3609 17.25 12.4703L19.9597 13.5556C20.2231 13.6655 20.4479 13.8513 20.6053 14.0894C20.7628 14.3275 20.8458 14.6071 20.8438 14.8925V18.6875C20.8438 19.2594 20.6166 19.8078 20.2122 20.2122C19.8078 20.6166 19.2594 20.8437 18.6875 20.8438ZM4.31251 3.59375C4.12189 3.59375 3.93907 3.66948 3.80428 3.80427C3.66949 3.93906 3.59376 4.12188 3.59376 4.3125V4.37C3.92439 8.625 6.0447 18.6875 18.6444 19.4062C18.7388 19.4121 18.8335 19.3992 18.9229 19.3684C19.0123 19.3376 19.0948 19.2894 19.1656 19.2266C19.2364 19.1639 19.2941 19.0877 19.3354 19.0026C19.3767 18.9175 19.4008 18.8251 19.4063 18.7306V14.8925L16.6966 13.8072L14.6338 15.8556L14.2888 15.8125C8.03564 15.0291 7.18751 8.77594 7.18751 8.71125L7.14439 8.36625L9.18564 6.30344L8.10751 3.59375H4.31251Z" fill="black"/>
</svg>
